<svg id="Layer_1" data-name="Layer 1" xmlns="http://www.w3.org/2000/svg" viewBox="0 0 400 400"><defs><style>.cls-1{fill:#fff;}</style></defs><path class="cls-1" d="M244.75,185.08A14.92,14.92,0,0,0,229.83,200a29.83,29.83,0,0,1-59.66,0,14.92,14.92,0,0,0-29.82-.76c0,.25,0,.49,0,.76a59.35,59.35,0,0,0,8,29.83,60.08,60.08,0,0,0,21.85,21.85,59.74,59.74,0,0,0,59.66,0,60.08,60.08,0,0,0,21.85-21.85,59.35,59.35,0,0,0,8-29.83c0-.27,0-.51,0-.76A14.93,14.93,0,0,0,244.75,185.08Z"/><path class="cls-1" d="M315.57,170.17a118.77,118.77,0,0,0-26.07-49.08,120.32,120.32,0,0,0-29.84-24.46,118.32,118.32,0,0,0-29.83-12.2,120.21,120.21,0,0,0-59.66,0,118.77,118.77,0,0,0-49.08,26.07,120.32,120.32,0,0,0-24.46,29.84,118.55,118.55,0,0,0-15.94,58.9c0,.25,0,.49,0,.76s0,.51,0,.76A119.1,119.1,0,0,0,199.24,319.31c.25,0,.49,0,.76,0s.51,0,.76,0A14.91,14.91,0,0,0,200,289.5a89.27,89.27,0,0,1-59.66-22.81,86.36,86.36,0,0,1-7-7,89.38,89.38,0,0,1,0-119.32,86.36,86.36,0,0,1,7-7,89.38,89.38,0,0,1,119.32,0,86.36,86.36,0,0,1,7,7A89.27,89.27,0,0,1,289.5,200a14.91,14.91,0,0,0,29.81.76c0-.25,0-.49,0-.76s0-.51,0-.76A118.58,118.58,0,0,0,315.57,170.17Z"/></svg>