<svg id="Layer_1" data-name="Layer 1" xmlns="http://www.w3.org/2000/svg" viewBox="0 0 400 113.47"><defs><style>.cls-1{fill:#fff;}</style></defs><path class="cls-1" d="M108.66,78h7.68V54.89h6.21v-7h-6.21V47c0-3.61,2.13-5,6.21-5V35c-9.46,0-13.89,3.37-13.89,11.59v1.3h-4.73v7h4.73Z"/><path class="cls-1" d="M140.93,78.71c9.22,0,16.19-6.8,16.19-15.78s-7-15.78-16.19-15.78-16.2,6.79-16.2,15.78S131.71,78.71,140.93,78.71Zm0-24.12a8.34,8.34,0,1,1-8.28,8.34A8.1,8.1,0,0,1,140.93,54.59Z"/><path class="cls-1" d="M170.3,63.64c0-5.09,3.13-8.34,8.81-8.34V47.38a10.76,10.76,0,0,0-8.81,4.91V47.86h-7.68V78h7.68Z"/><path class="cls-1" d="M196.72,78.71a11.27,11.27,0,0,0,9.16-4.38V78h7.68V47.86h-7.68v17c0,3.9-2.66,6.44-6.62,6.44-3.72,0-6.21-2.48-6.21-6.32V47.86h-7.68V67.18C185.37,74.16,189.92,78.71,196.72,78.71Z"/><path class="cls-1" d="M230.35,72.38A3.51,3.51,0,0,1,226.74,69H219c0,5.38,4.79,9.76,11.29,9.76,6.14,0,11.23-3.55,11.23-9.7,0-5.79-4.44-8.09-9.1-9.27-3.14-.77-5.26-1.9-5.26-3.79a2.79,2.79,0,0,1,3-2.48,3.06,3.06,0,0,1,3.19,3h7.74c0-5.15-4.67-9.28-10.87-9.28-5.79,0-10.82,3.31-10.82,9.28s4.79,8.39,9.28,9.45c2.72.71,5,1.72,5,3.78C233.72,71.2,232.24,72.38,230.35,72.38Z"/><rect class="cls-1" x="260.43" y="35.45" width="7.68" height="42.55"/><path class="cls-1" d="M288.44,78.71A12.37,12.37,0,0,0,298.25,74v4h7.69V47.86h-7.69v4a12.34,12.34,0,0,0-9.81-4.67c-8.39,0-14.71,6.79-14.71,15.78S280.05,78.71,288.44,78.71Zm1.48-24.12a8.34,8.34,0,1,1-8.27,8.34A8.14,8.14,0,0,1,289.92,54.59Z"/><path class="cls-1" d="M321,74a12.37,12.37,0,0,0,9.81,4.67c8.39,0,14.66-6.8,14.66-15.78s-6.27-15.78-14.66-15.78A12.34,12.34,0,0,0,321,51.82V35.45h-7.68V78H321Zm8.27-19.45A8.34,8.34,0,1,1,321,62.93,8.1,8.1,0,0,1,329.22,54.59Z"/><path class="cls-1" d="M362.62,59.74c-3.14-.77-5.26-1.9-5.26-3.79a2.79,2.79,0,0,1,3-2.48,3.06,3.06,0,0,1,3.19,3h7.74c0-5.15-4.67-9.28-10.87-9.28-5.79,0-10.82,3.31-10.82,9.28s4.79,8.39,9.28,9.45c2.72.71,5,1.72,5,3.78,0,1.54-1.47,2.72-3.36,2.72A3.51,3.51,0,0,1,356.94,69H349.2c0,5.38,4.79,9.76,11.29,9.76,6.14,0,11.23-3.55,11.23-9.7C371.72,63.22,367.28,60.92,362.62,59.74Z"/><path class="cls-1" d="M67.29,53.19a3.55,3.55,0,0,0-3.55,3.54,7.09,7.09,0,1,1-14.18,0,3.55,3.55,0,0,0-7.09-.18v.18a14.11,14.11,0,0,0,1.9,7.1A14.27,14.27,0,0,0,49.56,69a14.18,14.18,0,0,0,14.18,0,14.27,14.27,0,0,0,5.19-5.19,14.11,14.11,0,0,0,1.9-7.1v-.18A3.55,3.55,0,0,0,67.29,53.19Z"/><path class="cls-1" d="M76.71,49.64a21.12,21.12,0,0,1,1.22,7.09,3.54,3.54,0,0,0,7.08.19,1.15,1.15,0,0,0,0-.19,1.09,1.09,0,0,0,0-.18A28.24,28.24,0,0,0,77.93,38a28.54,28.54,0,0,0-2.52-2.52,28.25,28.25,0,0,0-11.67-6.2,28.69,28.69,0,0,0-14.18,0,28.25,28.25,0,0,0-11.67,6.2A27.14,27.14,0,0,0,35.38,38a27.51,27.51,0,0,0-3.3,4.57,28.19,28.19,0,0,0-3.79,14,1.09,1.09,0,0,0,0,.18,1.15,1.15,0,0,0,0,.19,28.19,28.19,0,0,0,3.79,14,27.51,27.51,0,0,0,3.3,4.57A27.14,27.14,0,0,0,37.89,78a28.8,28.8,0,0,0,4.58,3.3,28.12,28.12,0,0,0,7.09,2.9,28.56,28.56,0,0,0,6.91.89h.36A3.55,3.55,0,0,0,56.65,78a21.32,21.32,0,0,1-7.09-1.21,21.09,21.09,0,0,1-7.09-4.21,21.93,21.93,0,0,1-1.67-1.67,21.24,21.24,0,0,1,0-28.37,18.8,18.8,0,0,1,1.67-1.67,21.23,21.23,0,0,1,28.36,0,18.8,18.8,0,0,1,1.67,1.67A21.12,21.12,0,0,1,76.71,49.64Z"/></svg>